<?xml version="1.0" encoding="UTF-8" standalone="no"?>
<svg
   xmlns:dc="http://purl.org/dc/elements/1.1/"
   xmlns:cc="http://creativecommons.org/ns#"
   xmlns:rdf="http://www.w3.org/1999/02/22-rdf-syntax-ns#"
   xmlns:svg="http://www.w3.org/2000/svg"
   xmlns="http://www.w3.org/2000/svg"
   xmlns:sodipodi="http://sodipodi.sourceforge.net/DTD/sodipodi-0.dtd"
   xmlns:inkscape="http://www.inkscape.org/namespaces/inkscape"
   width="480pt"
   height="96pt"
   viewBox="0 0 480 96"
   overflow="visible"
   version="1.1"
   id="svg3789"
   sodipodi:docname="big_logo.svg"
   inkscape:version="0.92.4 (5da689c313, 2019-01-14)">
  <metadata
     id="metadata3795">
    <rdf:RDF>
      <cc:Work
         rdf:about="">
        <dc:format>image/svg+xml</dc:format>
        <dc:type
           rdf:resource="http://purl.org/dc/dcmitype/StillImage" />
        <dc:title></dc:title>
      </cc:Work>
    </rdf:RDF>
  </metadata>
  <defs
     id="defs3793" />
  <sodipodi:namedview
     pagecolor="#707070"
     bordercolor="#666666"
     borderopacity="1"
     objecttolerance="10"
     gridtolerance="10"
     guidetolerance="10"
     inkscape:pageopacity="0"
     inkscape:pageshadow="2"
     inkscape:window-width="1366"
     inkscape:window-height="706"
     id="namedview3791"
     showgrid="false"
     inkscape:zoom="1"
     inkscape:cx="314.10439"
     inkscape:cy="44.505359"
     inkscape:window-x="-8"
     inkscape:window-y="-8"
     inkscape:window-maximized="1"
     inkscape:current-layer="svg3789"
     inkscape:pagecheckerboard="false" />
  <path
     d="m 27.481781,43.08992 v -1.18681 c 0,-1.69283 -0.264666,-3.12806 -0.794007,-4.30567 -0.529341,-1.17762 -1.232083,-2.17584 -2.108227,-2.99465 -0.876154,-0.81881 -1.866379,-1.50882 -2.970693,-2.07003 L 18.200095,30.98713 14.791326,29.60711 C 13.687012,29.15631 12.696788,28.6227 11.820634,28.00629 10.94449,27.38988 10.241747,26.64927 9.712408,25.78445 9.183068,24.91964 8.9183985,23.85242 8.9183985,22.5828 v -0.74521 c 0,-0.88321 0.1642771,-1.70662 0.4928334,-2.47024 0.3285553,-0.76361 0.7803201,-1.43062 1.3552931,-2.00103 0.574973,-0.57041 1.24121,-1.02121 1.998711,-1.35242 0.757501,-0.3312 1.574323,-0.49681 2.450477,-0.49681 h 2.190366 c 0.876154,0 1.692976,0.16561 2.450477,0.49681 0.757501,0.33121 1.419175,0.78201 1.985022,1.35242 0.565846,0.57041 1.01305,1.23742 1.3416,2.00103 0.32856,0.76362 0.492835,1.58703 0.492835,2.47024 v 1.60083 l 3.531976,-0.57961 v -1.02122 c 0,-1.34322 -0.250986,-2.60364 -0.752938,-3.78126 -0.501962,-1.17762 -1.191015,-2.20803 -2.067169,-3.09125 -0.876144,-0.88321 -1.89832,-1.57782 -3.066519,-2.08383 -1.168189,-0.50601 -2.418525,-0.75901 -3.750999,-0.75901 h -2.518926 c -1.332474,0 -2.587383,0.253 -3.764699,0.75901 -1.177325,0.50601 -2.2040634,1.20062 -3.0802105,2.08383 -0.8761481,0.88322 -1.5652021,1.91363 -2.0671619,3.09125 -0.5019599,1.17762 -0.7529398,2.43804 -0.7529398,3.78126 v 0.74521 c 0,1.69283 0.2646705,3.11885 0.7940096,4.27807 0.529339,1.15922 1.2320826,2.13903 2.1082307,2.93945 0.8761481,0.80041 1.8663789,1.46742 2.9706929,2.00103 l 3.40876,1.46282 3.408759,1.32482 c 1.104314,0.44161 2.094548,0.97982 2.970692,1.61463 0.876144,0.6348 1.578887,1.40302 2.108228,2.30463 0.529341,0.90162 0.794016,2.03323 0.794016,3.39486 v 1.18681 c 0,0.88322 -0.177974,1.70663 -0.533904,2.47024 -0.355939,0.76362 -0.835075,1.43522 -1.437437,2.01483 -0.602353,0.57961 -1.295959,1.03502 -2.080849,1.36623 -0.78488,0.3312 -1.615392,0.49681 -2.491546,0.49681 h -2.464167 c -0.876145,0 -1.71122,-0.16561 -2.505236,-0.49681 C 11.642669,48.61001 10.94449,48.1546 10.342137,47.57499 9.7397872,46.99538 9.2606443,46.32378 8.9047089,45.56016 8.5487734,44.79655 8.3708056,43.97314 8.3708056,43.08992 V 40.93709 L 4.838835,41.5167 v 1.57322 c 0,1.34322 0.2692327,2.60365 0.8076991,3.78126 0.5384655,1.17762 1.2594628,2.20804 2.1629901,3.09125 0.9035273,0.88321 1.95308,1.57782 3.1486548,2.08383 1.195578,0.50601 2.459604,0.75901 3.792078,0.75901 h 2.820107 c 1.332474,0 2.5965,-0.253 3.792078,-0.75901 1.195568,-0.50601 2.245123,-1.20062 3.148647,-2.08383 0.903533,-0.88321 1.624528,-1.91363 2.162996,-3.09125 0.538467,-1.17761 0.807696,-2.43804 0.807696,-3.78126 z"
     id="path3755"
     style="fill:#3e3e3e;fill-opacity:1;stroke:none;stroke-width:0.71711415;stroke-opacity:1"
     inkscape:connector-curvature="0" />
  <path
     d="M 65.019252,33.31937 75.094944,12.67425 H 71.289177 L 63.212195,29.1241 55.135204,12.67425 h -3.805768 l 10.15784,20.70032 v 18.8787 h 3.531976 z"
     id="path3757"
     style="fill:#3e3e3e;fill-opacity:1;stroke:none;stroke-width:0.71711415;stroke-opacity:1"
     inkscape:connector-curvature="0" />
  <path
     d="m 120.57254,52.25327 h 1.86179 V 12.67425 h -3.53202 V 43.20033 L 118.54638,41.5167 102.17342,12.67425 h -1.8345 v 39.57902 h 3.53201 V 21.72719 l 0.32855,1.71123 z"
     id="path3759"
     style="fill:#3e3e3e;fill-opacity:1;stroke:none;stroke-width:0.71711415;stroke-opacity:1"
     inkscape:connector-curvature="0" />
  <path
     style="fill:#3e3e3e;fill-opacity:1;stroke:none;stroke-width:0.71711415;stroke-opacity:1"
     d="m 197.235,12.673828 v 39.580078 h 3.53255 V 35.361328 h 4.84617 l 10.64995,16.892578 h 4.08038 L 209.69264,35.361328 c 1.33245,0 2.58378,-0.252779 3.75197,-0.758789 1.16817,-0.50601 2.18995,-1.199798 3.06609,-2.083008 0.87613,-0.88321 1.56584,-1.918648 2.0678,-3.105469 0.50194,-1.18682 0.75272,-2.45219 0.75272,-3.79541 v -3.202148 c 0,-1.34322 -0.25078,-2.607125 -0.75272,-3.793946 -0.50196,-1.18682 -1.19167,-2.222248 -2.0678,-3.105468 -0.87614,-0.88321 -1.89792,-1.578463 -3.06609,-2.084473 -1.16819,-0.50601 -2.41952,-0.758789 -3.75197,-0.758789 z m 3.53255,3.395508 h 8.76089 c 0.87613,0 1.69392,0.165372 2.45142,0.496582 0.75749,0.3312 1.41913,0.787089 1.98497,1.366699 0.56583,0.57961 1.01258,1.25055 1.34123,2.01416 0.32855,0.76362 0.49261,1.586517 0.49261,2.469727 v 3.202148 c 0,0.88321 -0.16406,1.706117 -0.49261,2.469727 -0.32865,0.76361 -0.7754,1.436015 -1.34123,2.015625 -0.56584,0.57961 -1.22748,1.035499 -1.98497,1.366699 -0.7575,0.33121 -1.57529,0.496582 -2.45142,0.496582 h -8.76089 z"
     id="path3761"
     inkscape:connector-curvature="0" />
  <path
     style="fill:#3e3e3e;fill-opacity:1;stroke:none;stroke-width:0.71711415;stroke-opacity:1"
     d="m 255.80028,12.121582 c -1.33245,0 -2.58764,0.254244 -3.76504,0.760254 -1.17731,0.50601 -2.20304,1.199798 -3.07917,2.083008 -0.87613,0.88322 -1.56584,1.9132 -2.0678,3.09082 -0.50205,1.17762 -0.75272,2.439007 -0.75272,3.782227 v 21.251953 c 0,1.34322 0.25067,2.603151 0.75272,3.780762 0.50196,1.17762 1.19167,2.209074 2.0678,3.092285 0.87613,0.88321 1.90186,1.576997 3.07917,2.083007 1.1774,0.50601 2.43259,0.758789 3.76504,0.758789 h 2.79291 c 1.33245,0 2.58233,-0.252779 3.75052,-0.758789 1.16817,-0.50601 2.1914,-1.199797 3.06754,-2.083007 0.87624,-0.883211 1.56439,-1.914665 2.06635,-3.092285 0.50194,-1.177611 0.75272,-2.437542 0.75272,-3.780762 V 21.837891 c 0,-1.34322 -0.25078,-2.604607 -0.75272,-3.782227 -0.50196,-1.17762 -1.19011,-2.2076 -2.06635,-3.09082 -0.87614,-0.88321 -1.89937,-1.576998 -3.06754,-2.083008 -1.16819,-0.50601 -2.41807,-0.760254 -3.75052,-0.760254 z m 0.16421,3.395508 h 2.4645 c 0.87613,0 1.69247,0.165381 2.44997,0.496581 0.75749,0.331211 1.41913,0.781641 1.98497,1.352052 0.56583,0.57041 1.01413,1.237366 1.34268,2.000976 0.32855,0.76362 0.49261,1.587982 0.49261,2.471192 v 21.251953 c 0,0.88322 -0.16406,1.706116 -0.49261,2.469726 -0.32855,0.76362 -0.77685,1.436015 -1.34268,2.015625 -0.56584,0.57961 -1.22748,1.035489 -1.98497,1.366699 -0.7575,0.3312 -1.57384,0.496583 -2.44997,0.496583 h -2.4645 c -0.87614,0 -1.69248,-0.165383 -2.44997,-0.496583 -0.75759,-0.33121 -1.42454,-0.787089 -1.9995,-1.366699 -0.57496,-0.57961 -1.02576,-1.252005 -1.35431,-2.015625 -0.32855,-0.76361 -0.49261,-1.586506 -0.49261,-2.469726 V 21.837891 c 0,-0.88321 0.16406,-1.707572 0.49261,-2.471192 0.32855,-0.76361 0.77935,-1.430566 1.35431,-2.000976 0.57496,-0.570411 1.24191,-1.020841 1.9995,-1.352052 0.75749,-0.3312 1.57383,-0.496581 2.44997,-0.496581 z"
     id="path3765"
     inkscape:connector-curvature="0" />
  <path
     d="m 299.8269,16.0691 h 18.56339 v -3.39485 h -22.0954 v 39.57902 h 3.53201 V 34.17498 h 15.03138 V 30.78013 H 299.8269 Z"
     id="path3769"
     style="fill:#ffffff;fill-opacity:1;stroke:none;stroke-width:0.71711415;stroke-opacity:1"
     inkscape:connector-curvature="0" />
  <path
     style="fill:#ffffff;fill-opacity:1;stroke:none;stroke-width:0.71711415;stroke-opacity:1"
     d="m 352.7237,12.121582 c -1.33245,0 -2.58628,0.254244 -3.76359,0.760254 -1.1774,0.50601 -2.20449,1.199798 -3.08063,2.083008 -0.87613,0.88322 -1.56584,1.9132 -2.06779,3.09082 -0.50195,1.17762 -0.75272,2.439007 -0.75272,3.782227 v 21.251953 c 0,1.34322 0.25077,2.603151 0.75272,3.780762 0.50195,1.17762 1.19166,2.209074 2.06779,3.092285 0.87614,0.88321 1.90323,1.576997 3.08063,2.083007 1.17731,0.50601 2.43114,0.758789 3.76359,0.758789 h 2.79291 c 1.33245,0 2.58378,-0.252779 3.75197,-0.758789 1.16817,-0.50601 2.18995,-1.199797 3.06609,-2.083007 0.87613,-0.883211 1.56439,-1.914665 2.06635,-3.092285 0.50194,-1.177611 0.75417,-2.437542 0.75417,-3.780762 V 21.837891 c 0,-1.34322 -0.25223,-2.604607 -0.75417,-3.782227 -0.50196,-1.17762 -1.19022,-2.2076 -2.06635,-3.09082 -0.87614,-0.88321 -1.89792,-1.576998 -3.06609,-2.083008 -1.16819,-0.50601 -2.41952,-0.760254 -3.75197,-0.760254 z m 0.16421,3.395508 h 2.4645 c 0.87613,0 1.69392,0.165381 2.45142,0.496581 0.75749,0.331211 1.41913,0.781641 1.98497,1.352052 0.56593,0.57041 1.01268,1.237366 1.34123,2.000976 0.32855,0.76362 0.49261,1.587982 0.49261,2.471192 v 21.251953 c 0,0.88322 -0.16406,1.706116 -0.49261,2.469726 -0.32855,0.76362 -0.7753,1.436015 -1.34123,2.015625 -0.56584,0.57961 -1.22748,1.035489 -1.98497,1.366699 -0.7575,0.3312 -1.57529,0.496583 -2.45142,0.496583 h -2.4645 c -0.87614,0 -1.69248,-0.165383 -2.44997,-0.496583 -0.7575,-0.33121 -1.42299,-0.787089 -1.99805,-1.366699 -0.57487,-0.57961 -1.02722,-1.252005 -1.35577,-2.015625 -0.32855,-0.76361 -0.4926,-1.586506 -0.4926,-2.469726 V 21.837891 c 0,-0.88321 0.16405,-1.707572 0.4926,-2.471192 0.32855,-0.76361 0.7809,-1.430566 1.35577,-2.000976 0.57506,-0.570411 1.24055,-1.020841 1.99805,-1.352052 0.75749,-0.3312 1.57383,-0.496581 2.44997,-0.496581 z"
     id="path3771"
     inkscape:connector-curvature="0" />
  <path
     style="fill:#ffffff;fill-opacity:1;stroke:none;stroke-width:0.71711415;stroke-opacity:1"
     d="m 392.64394,12.673828 v 39.580078 h 3.53255 V 35.361328 h 4.84617 l 10.64995,16.892578 h 4.07893 L 405.10158,35.361328 c 1.33246,0 2.58234,-0.252779 3.75052,-0.758789 1.16817,-0.50601 2.19131,-1.199798 3.06755,-2.083008 0.87613,-0.88321 1.56438,-1.918648 2.06634,-3.105469 0.50195,-1.18682 0.75272,-2.45219 0.75272,-3.79541 v -3.202148 c 0,-1.34322 -0.25077,-2.607125 -0.75272,-3.793946 -0.50196,-1.18682 -1.19021,-2.222248 -2.06634,-3.105468 -0.87624,-0.88321 -1.89938,-1.578463 -3.06755,-2.084473 -1.16818,-0.50601 -2.41806,-0.758789 -3.75052,-0.758789 z m 3.53255,3.395508 h 8.76089 c 0.87613,0 1.69248,0.165372 2.44997,0.496582 0.75749,0.3312 1.41913,0.787089 1.98497,1.366699 0.56583,0.57961 1.01414,1.25055 1.34269,2.01416 0.32854,0.76362 0.4926,1.586517 0.4926,2.469727 v 3.202148 c 0,0.88321 -0.16405,1.706117 -0.4926,2.469727 -0.32855,0.76361 -0.77686,1.436015 -1.34269,2.015625 -0.56584,0.57961 -1.22748,1.035499 -1.98497,1.366699 -0.75749,0.33121 -1.57384,0.496582 -2.44997,0.496582 h -8.76089 z"
     id="path3775"
     inkscape:connector-curvature="0" />
  <path
     d="M 466.29498,52.25327 H 469.827 V 12.67425 h -1.86188 l -11.88267,32.4581 -0.10962,1.46283 -0.10942,-1.46283 -11.91015,-32.4581 h -1.8345 v 39.57902 h 3.53201 V 25.12204 l 0.21904,1.68363 9.19951,25.4476 h 1.86188 l 9.11737,-25.4476 0.24641,-1.68363 z"
     id="path3779"
     style="fill:#ffffff;fill-opacity:1;stroke:none;stroke-width:0.71711415;stroke-opacity:1"
     inkscape:connector-curvature="0" />
  <path
     d="m 158.86175,40.04184 -19.31612,16.79562 19.31612,-22.87868 19.31612,22.87868 z"
     id="path3783"
     inkscape:connector-curvature="0"
     style="fill:#3b3b3b;fill-opacity:1;stroke:none;stroke-width:0.71711415;stroke-opacity:1"
     sodipodi:nodetypes="ccccc" />
  <path
     d="M 158.86175,24.73546 139.54563,7.93985 158.86175,30.81852 178.17787,7.93985 Z"
     id="path3785"
     inkscape:connector-curvature="0"
     style="fill:#3b3b3b;fill-opacity:1;stroke:none;stroke-width:0.71711415;stroke-opacity:1"
     sodipodi:nodetypes="ccccc" />
</svg>
